<svg width="512" height="512" viewBox="0 0 512 512" fill="none" xmlns="http://www.w3.org/2000/svg">
<path d="M380.95 114.46C318.004 101.313 317.63 146.5 256.082 146.5C202.832 146.5 200.835 101.825 131.212 114.46C17.2072 135.072 -0.319836 385.9 60.1602 399.045C93.7382 406.34 110.655 367.401 155.05 339.452C161.64 344.324 169.297 347.554 177.385 348.876C185.473 350.198 193.759 349.573 201.557 347.053C209.355 344.532 216.441 340.19 222.225 334.385C228.01 328.579 232.328 321.479 234.82 313.672C241.884 313.06 248.97 312.757 256.06 312.762C263.526 312.762 270.5 313.082 277.186 313.66C279.685 321.468 284.01 328.568 289.802 334.371C295.594 340.174 302.685 344.512 310.489 347.026C318.292 349.54 326.583 350.158 334.673 348.828C342.763 347.497 350.419 344.258 357.006 339.377C401.456 367.327 418.373 406.307 451.961 399.003C512.431 385.899 494.456 138.158 380.95 114.46ZM147.47 242.703H121.326V216.12H94.7302V189.977H121.324V163.384H147.468V189.966H174.05V216.11H147.468V242.692L147.47 242.703ZM185.693 332.318C178.902 332.318 172.264 330.304 166.617 326.531C160.971 322.758 156.57 317.395 153.972 311.121C151.373 304.847 150.693 297.943 152.018 291.283C153.343 284.622 156.613 278.504 161.415 273.702C166.217 268.901 172.335 265.63 178.996 264.306C185.656 262.981 192.56 263.661 198.834 266.26C205.108 268.859 210.471 273.26 214.244 278.906C218.016 284.553 220.03 291.191 220.03 297.982C220.033 307.088 216.418 315.823 209.981 322.264C203.544 328.705 194.811 332.325 185.705 332.328L185.693 332.318ZM326.295 332.318C319.505 332.312 312.869 330.293 307.226 326.515C301.584 322.738 297.188 317.373 294.594 311.098C292 304.823 291.325 297.919 292.655 291.26C293.984 284.602 297.257 278.486 302.062 273.688C306.866 268.889 312.985 265.623 319.646 264.302C326.306 262.981 333.209 263.664 339.481 266.266C345.753 268.867 351.113 273.27 354.883 278.917C358.653 284.564 360.664 291.203 360.662 297.993C360.662 302.505 359.773 306.972 358.045 311.14C356.318 315.308 353.785 319.094 350.594 322.283C347.402 325.472 343.613 328 339.444 329.724C335.274 331.447 330.806 332.332 326.294 332.328L326.295 332.318ZM349.98 220.36C346.554 220.361 343.204 219.345 340.355 217.442C337.506 215.539 335.285 212.833 333.973 209.668C332.662 206.502 332.319 203.019 332.987 199.658C333.655 196.298 335.305 193.211 337.728 190.788C340.151 188.365 343.238 186.715 346.598 186.047C349.959 185.378 353.442 185.722 356.608 187.033C359.773 188.345 362.479 190.565 364.382 193.415C366.285 196.264 367.301 199.614 367.3 203.04C367.3 207.634 365.475 212.04 362.226 215.289C358.978 218.538 354.571 220.363 349.977 220.363L349.98 220.36ZM387.498 257.88C384.072 257.88 380.723 256.864 377.874 254.961C375.025 253.058 372.804 250.352 371.493 247.187C370.182 244.022 369.839 240.539 370.507 237.178C371.175 233.818 372.825 230.731 375.247 228.308C377.67 225.886 380.756 224.236 384.117 223.567C387.477 222.898 390.96 223.241 394.125 224.552C397.291 225.863 399.997 228.083 401.9 230.932C403.804 233.781 404.82 237.13 404.82 240.556C404.822 242.835 404.373 245.093 403.501 247.198C402.628 249.304 401.349 251.217 399.735 252.827C398.122 254.437 396.207 255.714 394.1 256.582C391.993 257.451 389.734 257.896 387.455 257.89L387.498 257.88ZM387.498 182.832C384.072 182.832 380.723 181.816 377.874 179.913C375.025 178.01 372.804 175.304 371.493 172.139C370.182 168.974 369.839 165.49 370.507 162.13C371.175 158.77 372.825 155.683 375.248 153.26C377.67 150.837 380.757 149.187 384.117 148.519C387.478 147.85 390.961 148.193 394.126 149.505C397.292 150.816 399.997 153.036 401.901 155.885C403.804 158.733 404.82 162.083 404.82 165.509C404.821 167.788 404.373 170.045 403.5 172.151C402.628 174.257 401.348 176.169 399.735 177.78C398.122 179.39 396.207 180.666 394.1 181.534C391.992 182.403 389.734 182.847 387.455 182.842L387.498 182.832ZM425.016 220.35C421.59 220.35 418.241 219.334 415.392 217.431C412.543 215.527 410.323 212.822 409.012 209.656C407.701 206.491 407.358 203.008 408.026 199.647C408.694 196.287 410.344 193.2 412.767 190.778C415.19 188.355 418.276 186.705 421.637 186.037C424.997 185.368 428.48 185.711 431.645 187.023C434.811 188.334 437.516 190.554 439.42 193.403C441.323 196.252 442.339 199.601 442.339 203.027C442.341 205.306 441.892 207.564 441.019 209.67C440.147 211.776 438.867 213.689 437.254 215.299C435.64 216.909 433.725 218.185 431.617 219.054C429.51 219.923 427.252 220.367 424.972 220.361L425.016 220.35Z" fill="black"/>
</svg>
