<svg width="28" height="28" viewBox="0 0 28 28" fill="none" xmlns="http://www.w3.org/2000/svg">
<path d="M10.5 12.25C10.5 11.284 11.284 10.5 12.25 10.5H15.75C16.716 10.5 17.5 11.284 17.5 12.25C17.5 12.3163 17.4737 12.3799 17.4268 12.4268C17.3799 12.4737 17.3163 12.5 17.25 12.5H10.75C10.6837 12.5 10.6201 12.4737 10.5732 12.4268C10.5263 12.3799 10.5 12.3163 10.5 12.25ZM14 2C12.746 1.99969 11.5334 2.44822 10.5814 3.26444C9.62945 4.08067 9.00108 5.21067 8.81 6.45C7.34122 7.34181 6.12703 8.59705 5.28452 10.0946C4.44201 11.5922 3.99961 13.2817 4 15V16H24V15C24.0004 13.2817 23.558 11.5922 22.7155 10.0946C21.873 8.59705 20.6588 7.34181 19.19 6.45C18.9989 5.21067 18.3706 4.08067 17.4186 3.26444C16.4666 2.44822 15.254 1.99969 14 2ZM14 5C13.087 5 12.202 5.122 11.362 5.352C11.663 4.93361 12.0592 4.59281 12.5179 4.35773C12.9766 4.12265 13.4846 4.00003 14 4C15.086 4 16.048 4.533 16.638 5.352C15.7783 5.11766 14.8911 4.99927 14 5ZM12.25 9H15.75C16.1768 9 16.5994 9.08406 16.9937 9.24739C17.388 9.41072 17.7463 9.65011 18.0481 9.9519C18.3499 10.2537 18.5893 10.612 18.7526 11.0063C18.9159 11.4006 19 11.8232 19 12.25C19 12.7141 18.8156 13.1592 18.4874 13.4874C18.1592 13.8156 17.7141 14 17.25 14H10.75C10.2859 14 9.84075 13.8156 9.51256 13.4874C9.18437 13.1592 9 12.7141 9 12.25C9 11.8232 9.08406 11.4006 9.24739 11.0063C9.41072 10.612 9.65011 10.2537 9.9519 9.9519C10.5614 9.34241 11.388 9 12.25 9ZM9 19.25V17.5H4V22C4 23.0609 4.42143 24.0783 5.17157 24.8284C5.92172 25.5786 6.93913 26 8 26H20C21.0609 26 22.0783 25.5786 22.8284 24.8284C23.5786 24.0783 24 23.0609 24 22V17.5H10.5V19.25C10.5 19.4489 10.421 19.6397 10.2803 19.7803C10.1397 19.921 9.94891 20 9.75 20C9.55109 20 9.36032 19.921 9.21967 19.7803C9.07902 19.6397 9 19.4489 9 19.25Z" fill="black"/>
</svg>
