<svg width="48" height="48" viewBox="0 0 48 48" fill="none" xmlns="http://www.w3.org/2000/svg">
<path fill-rule="evenodd" clip-rule="evenodd" d="M22.062 25.6021L11.33 5.41609C11.2683 5.30014 11.2301 5.17317 11.2175 5.04245C11.2049 4.91172 11.2182 4.7798 11.2566 4.65421C11.3341 4.40056 11.5093 4.18811 11.7434 4.06359C11.9776 3.93908 12.2517 3.91269 12.5053 3.99023C12.6309 4.02863 12.7477 4.09139 12.8491 4.17492C12.9504 4.25846 13.0343 4.36114 13.0959 4.47709L23.829 24.6631L25.351 23.8531C25.8148 23.6065 26.3228 23.4537 26.8457 23.4034C27.3687 23.3531 27.8964 23.4063 28.3988 23.56C28.9011 23.7137 29.3683 23.9648 29.7736 24.2991C30.1789 24.6333 30.5144 25.0442 30.761 25.5081L31.409 26.7271L38.2789 36.7811L29.541 41.4261L26.514 35.4431L24.7299 36.3461L27.775 42.3661L24.0289 44.3571L19.534 33.0391L18.8869 31.8211C18.6403 31.3573 18.4874 30.8494 18.4371 30.3265C18.3867 29.8036 18.4398 29.2759 18.5934 28.7735C18.747 28.2711 18.998 27.8039 19.3322 27.3986C19.6664 26.9932 20.0771 26.6577 20.541 26.4111L22.062 25.6021ZM26.2889 25.6201L21.479 28.1771C21.247 28.3004 21.0417 28.4682 20.8746 28.6708C20.7075 28.8735 20.582 29.1071 20.5052 29.3583C20.4284 29.6095 20.4018 29.8733 20.427 30.1348C20.4522 30.3962 20.5286 30.6502 20.652 30.8821L21.299 32.1001L29.642 27.6641L28.9939 26.4471C28.8707 26.2152 28.7029 26.0098 28.5002 25.8427C28.2975 25.6756 28.0639 25.5501 27.8127 25.4733C27.5616 25.3965 27.2977 25.37 27.0362 25.3951C26.7748 25.4203 26.5209 25.4968 26.2889 25.6201Z" fill="black"/>
<path d="M17.768 35.3602C17.5984 35.1564 17.3547 35.0284 17.0907 35.0042C16.8267 34.98 16.5638 35.0616 16.36 35.2312H16.362L16.351 35.2392L16.289 35.2872C16.1992 35.3544 16.1075 35.4191 16.014 35.4812C15.766 35.6462 15.396 35.8712 14.92 36.0972C13.6965 36.6852 12.3575 36.9937 11 37.0002C10.7348 37.0002 10.4804 37.1055 10.2929 37.2931C10.1054 37.4806 10 37.735 10 38.0002C10 38.2654 10.1054 38.5198 10.2929 38.7073C10.4804 38.8948 10.7348 39.0002 11 39.0002C12.655 38.9938 14.2878 38.6191 15.78 37.9032C16.2452 37.6823 16.6943 37.429 17.124 37.1452C17.2847 37.0376 17.4415 36.9242 17.594 36.8052L17.624 36.7822L17.634 36.7742L17.637 36.7702H17.639L17.64 36.7682C17.8436 36.5984 17.9715 36.3547 17.9955 36.0907C18.0195 35.8267 17.9377 35.5639 17.768 35.3602ZM19.832 40.4452C19.9049 40.5544 19.9556 40.677 19.9811 40.8058C20.0066 40.9347 20.0065 41.0673 19.9808 41.1961C19.9551 41.3249 19.9042 41.4473 19.8312 41.5565C19.7581 41.6656 19.6643 41.7593 19.555 41.8322L19.553 41.8342L19.549 41.8362L19.539 41.8422L19.508 41.8622L19.394 41.9352C18.7955 42.302 18.1735 42.6291 17.532 42.9142C16.35 43.4392 14.701 44.0002 13 44.0002C12.7348 44.0002 12.4804 43.8948 12.2929 43.7073C12.1054 43.5198 12 43.2654 12 43.0002C12 42.735 12.1054 42.4806 12.2929 42.2931C12.4804 42.1055 12.7348 42.0002 13 42.0002C14.298 42.0002 15.65 41.5612 16.719 41.0862C17.2763 40.8384 17.8168 40.5545 18.337 40.2362C18.3763 40.2129 18.405 40.1949 18.423 40.1822L18.443 40.1702L18.445 40.1682C18.5543 40.0953 18.6768 40.0446 18.8056 40.0191C18.9345 39.9936 19.0671 39.9937 19.1959 40.0194C19.3247 40.0451 19.4471 40.0959 19.5563 40.169C19.6654 40.2421 19.7591 40.3359 19.832 40.4452Z" fill="black"/>
</svg>
